name processed_emg_signals
nRows=40
nColumns=7
 
endheader
time	RGLTMED	RRF	RADDLONG	RST	RTA	RGM
0.677	0.4018291169815608	0.3481153625774122	0.3245918512629326	0.0718775508202665	0.2601357816810699	0.2874161331793052
0.678	0.4007434235852602	0.3494622708673585	0.32249571305816	0.0700266969835828	0.2606642259123779	0.2872435176991871
0.679	0.3996601834022216	0.3506930816274438	0.3203995895963309	0.0682654320027727	0.2611513180054203	0.287058689847072
0.68	0.3985774447568381	0.3518055582571925	0.3183078376736993	0.06659283498791	0.2615955153338189	0.2868622025173871
0.681	0.3974932522648067	0.3527976010930677	0.3162249079334452	0.0650079221818517	0.2619953151381423	0.2866546299870685
0.682	0.3964056495900027	0.3536672511988405	0.314155339565651	0.0635096484456892	0.2623492567115278	0.2864365663509885
0.683	0.3953126822322429	0.3544126939716547	0.3121037548045435	0.0620969087990898	0.2626559235350594	0.2862086239123767
0.684	0.3942124003460455	0.3550322625621042	0.3100748532318287	0.0607685400124097	0.2629139453592547	0.285971431532224
0.685	0.3931028615896661	0.3555244411059001	0.3080734058951958	0.0595233222477171	0.2631220002278971	0.2857256329420419
0.686	0.3919821340030053	0.3558878677638041	0.3061042492524519	0.0583599807460654	0.2632788164403537	0.2854718850248104
0.687	0.3908482989124566	0.3561213375657561	0.3041722789508786	0.0572771875586251	0.2633831744486162	0.2852108560694568
0.6880000000000001	0.3896994538603291	0.3562238050541573	0.302282443451537	0.0562735633194346	0.2634339086856386	0.2849432240044526
0.6890000000000001	0.3885337155562366	0.356194386720528	0.3004397375076531	0.0553476790575659	0.2634299093221825	0.2846696746161398
0.6900000000000001	0.3873492228477583	0.3560323632290021	0.2986491955055104	0.0544980580465657	0.2633701239499212	0.2843908997570739
0.6910000000000001	0.386144139707364	0.3557371814195254	0.2969158846765502	0.0537231776890498	0.2632535591891241	0.2841075955491373
0.6920000000000001	0.3849166582327337	0.3553084560829481	0.2952448981881647	0.0530214714342541	0.2630792822194234	0.2838204605855867
0.6930000000000001	0.3836650016570497	0.3547459714996946	0.2936413481219528	0.0523913307264999	0.2628464222324079	0.2835301941357811
0.6940000000000001	0.3823874273654455	0.3540496827330801	0.292110358348447	0.051831106982498	0.2625541718050866	0.2832374943561024
0.6950000000000001	0.3810822299131058	0.3532197166683505	0.290657057308164	0.0513391135955338	0.2622017881937639	0.2829430565102784
0.6960000000000001	0.3797477440400593	0.3522563727896003	0.2892865707101754	0.0509136279646609	0.2617885945484085	0.282647571202235
0.6970000000000001	0.3783823476774487	0.3511601236882924	0.2880040141585784	0.0505528935470395	0.2613139810477603	0.2823517226242117
0.6980000000000001	0.3769844649396437	0.3499316152994712	0.2868144857178411	0.0502551219316209	0.2607774059554837	0.2820561868225325
0.6990000000000001	0.3755525690961274	0.3485716668639604	0.2857230584272069	0.0500184949324826	0.2601783965972862	0.2817616299827156
0.7000000000000001	0.3740851855163046	0.347081270616835	0.2847347727740135	0.0498411667000016	0.2595165502587017	0.2814687067348871
0.7010000000000001	0.3725808945795968	0.3454615912041757	0.2838546291359685	0.0497212658480781	0.2587915350030366	0.2811780584797312
0.7020000000000001	0.3710383345424973	0.3437139648313888	0.2830875802016439	0.049656897595596	0.2580030904090885	0.2808903117347869
0.7030000000000001	0.3694562043541579	0.3418398981474743	0.2824385233792309	0.0496461459202347	0.257151028228481	0.2806060765007978
0.704	0.3678332664123988	0.339841066870633	0.2819122932024276	0.0496870757227812	0.2562352329627408	0.2803259446480393
0.705	0.3661683492531311	0.3377193141614859	0.2815136537433939	0.0497777350002596	0.2552556623605801	0.2800504883231274
0.706	0.364460350167019	0.3354766487511305	0.2812472910421822	0.049916157026128	0.2542123478360412	0.2797802583777437
0.707	0.3627082377381568	0.333115242831584	0.2811178055630109	0.0501003625358935	0.2531053948082762	0.2795157828217943
0.708	0.3609110542995974	0.3306374297159057	0.2811297046872594	0.0503283619163912	0.2519349829637317	0.2792575653045235
0.709	0.3590679183003779	0.3280457012746511	0.2812873952536207	0.0505981573969836	0.2507013664414765	0.2790060836276685
0.71	0.3571780265781608	0.3253427051542359	0.2815951761549859	0.0509077452408545	0.2494048739422856	0.27876178829504
0.711	0.3552406565310347	0.3225312417821921	0.2820572310022335	0.0512551179345991	0.2480459087618947	0.278525101102865
0.712	0.3532551681812166	0.3196142611637054	0.2826776208646069	0.0516382663742554	0.2466249487485824	0.2782964137750219
0.713	0.3512210061224843	0.3165948594736943	0.2834602770963853	0.0520551820459263	0.2451425461850304	0.2780760866469035
0.714	0.3491377013420836	0.3134762754487102	0.2844089942592236	0.0525038591991882	0.2435993275943158	0.2778644474015025
0.715	0.3470048729069067	0.3102618865828733	0.2855274231494785	0.0529822970114155	0.2419959934700817	0.2776617898615641
0.716	0.3448222295026639	0.3069552051323638	0.2868190639392756	0.0534885017411901	0.2403333179313563	0.2774683728420065
